<svg xmlns="http://www.w3.org/2000/svg" xmlns:xlink="http://www.w3.org/1999/xlink" viewBox="0 0 36 36">
<title>😉: winking face (U+1F609) - emojiall.com</title>
<style>svg{stroke:#edf2f6;animation:dashoffset 10s both infinite,fill-opacity 10s both infinite,stroke-opacity 10s both infinite;stroke-dasharray:500%;stroke-dashoffset:500%}@keyframes stroke-opacity{2%,25%{stroke-opacity:.75;stroke-width:2%}100%,75%{stroke-opacity:0;stroke-width:0}}@keyframes fill-opacity{10%,25%{fill-opacity:0}0%,100%,50%{fill-opacity:1}}@keyframes dashoffset{0%,2%{stroke-dashoffset:500%}100%{stroke-dashoffset:0%}}</style>
<path fill="#FFCC4D" d="M36 18c0 9.941-8.059 18-18 18-9.94 0-18-8.059-18-18C0 8.06 8.06 0 18 0c9.941 0 18 8.06 18 18"/>
<ellipse fill="#664500" cx="11.5" cy="16.5" rx="2.5" ry="3.5"/>
<path fill="#664500" d="M28.457 17.797c-.06-.135-1.499-3.297-4.457-3.297-2.957 0-4.397 3.162-4.457 3.297-.092.207-.032.449.145.591.175.142.426.147.61.014.012-.009 1.262-.902 3.702-.902 2.426 0 3.674.881 3.702.901.088.066.194.099.298.099.11 0 .221-.037.312-.109.177-.142.238-.386.145-.594zM5.999 12.458c-.208 0-.419-.065-.599-.2-.442-.331-.531-.958-.2-1.4 3.262-4.35 7.616-4.4 7.8-4.4.552 0 1 .448 1 1 0 .551-.445.998-.996 1-.156.002-3.569.086-6.205 3.6-.195.262-.496.4-.8.4zm23.002 2.125c-.305 0-.604-.138-.801-.4-2.592-3.457-6.961-2.627-7.004-2.62-.547.108-1.068-.243-1.177-.784-.108-.542.243-1.068.784-1.177.231-.047 5.657-1.072 8.996 3.38.332.442.242 1.069-.2 1.4-.179.137-.389.201-.598.201zm-5.747 8.994c-.188-.11-.432-.087-.597.06-.01.008-1.013.863-4.657.863-3.641 0-4.646-.854-4.646-.854-.159-.16-.404-.19-.6-.082-.195.111-.293.339-.238.557.01.044 1.144 4.379 5.484 4.379s5.474-4.335 5.485-4.379c.053-.213-.044-.431-.231-.544z"/>
<a xlink:href="https://www.emojiall.com/en/emoji/%F0%9F%98%89"><text x="36" y="34" font-size="1px" fill="#888da8" text-anchor="end" font-family="apple color emoji,segoe ui emoji,noto color emoji,android emoji,emojisymbols,emojione mozilla,twemoji mozilla,segoe ui symbol,Noto Color Emoji Compat,emoji,sans-serif">😉</text></a>
<a xlink:href="https://www.emojiall.com/"><text x="36" y="35" font-size="0.8px" fill="#888da8" text-anchor="end"><title>www.emojiall.com</title>emojiall.com</text></a>
</svg>